<svg id="Ebene_1" data-name="Ebene 1" xmlns="http://www.w3.org/2000/svg" viewBox="0 0 350 120"><rect width="350" height="120" style="fill:#e6297e"/><path d="M58.5,65.91a13,13,0,0,1-1.1,4.58A10.7,10.7,0,0,1,54.89,74a10.81,10.81,0,0,1-3.74,2.21,14.38,14.38,0,0,1-4.8.77,12.06,12.06,0,0,1-5.29-1.1,10.7,10.7,0,0,1-3.88-3.07A13.84,13.84,0,0,1,34.78,68a21,21,0,0,1-.84-6.1V57.39a20.38,20.38,0,0,1,.88-6.12,14.37,14.37,0,0,1,2.5-4.76,11.18,11.18,0,0,1,3.91-3.08,11.84,11.84,0,0,1,5.16-1.1,14.44,14.44,0,0,1,4.93.79A10.42,10.42,0,0,1,55,45.36a10.31,10.31,0,0,1,2.4,3.56,16.16,16.16,0,0,1,1.11,4.73H52.05A10.81,10.81,0,0,0,51.6,51a4.81,4.81,0,0,0-1-1.88A4.29,4.29,0,0,0,48.85,48a7.14,7.14,0,0,0-2.46-.38,5.1,5.1,0,0,0-2.61.65A5,5,0,0,0,42,50.16a9.48,9.48,0,0,0-1.08,3.06,22.31,22.31,0,0,0-.34,4.13v4.57c0,3.31.46,5.76,1.4,7.34a4.74,4.74,0,0,0,4.42,2.38,5.75,5.75,0,0,0,4-1.35A6.19,6.19,0,0,0,52,65.91Z" transform="translate(0.01 -0.14)" style="fill:#fff"/><path d="M62.88,63.72a15.5,15.5,0,0,1,.79-5,11.62,11.62,0,0,1,2.3-4A10.61,10.61,0,0,1,69.66,52a13.4,13.4,0,0,1,10,0,10.6,10.6,0,0,1,3.71,2.68,11.78,11.78,0,0,1,2.3,4,15.77,15.77,0,0,1,.78,5v.49a15.75,15.75,0,0,1-.78,5.06,11.87,11.87,0,0,1-2.29,4A10.35,10.35,0,0,1,79.7,76a12.34,12.34,0,0,1-5,1,12.53,12.53,0,0,1-5-1A10.43,10.43,0,0,1,66,73.31a11.57,11.57,0,0,1-2.3-4,15.47,15.47,0,0,1-.79-5.06Zm6.42.49a13.82,13.82,0,0,0,.3,2.94,7.62,7.62,0,0,0,1,2.4,4.82,4.82,0,0,0,1.67,1.63,4.88,4.88,0,0,0,2.49.6,4.54,4.54,0,0,0,4.07-2.23,7.39,7.39,0,0,0,.94-2.4,13.82,13.82,0,0,0,.3-2.94v-.49a13.41,13.41,0,0,0-.3-2.89,7.57,7.57,0,0,0-.94-2.4,4.53,4.53,0,0,0-4.12-2.24,4.76,4.76,0,0,0-2.45.6,4.91,4.91,0,0,0-1.66,1.64,7.82,7.82,0,0,0-1,2.4,13.41,13.41,0,0,0-.3,2.89Z" transform="translate(0.01 -0.14)" style="fill:#fff"/><path d="M110.09,51a17.23,17.23,0,0,1,2.69.2,14.28,14.28,0,0,1,2,.43l-1,6.4a21.7,21.7,0,0,0-2.6-.45,20.23,20.23,0,0,0-2.52-.15,8,8,0,0,0-4.33,1,6.33,6.33,0,0,0-2.44,3v15H95.52v-25h6l.3,4.08a11.55,11.55,0,0,1,3.65-3.33A9.19,9.19,0,0,1,110.09,51Z" transform="translate(0.01 -0.14)" style="fill:#fff"/><path d="M119.65,63.72a15.5,15.5,0,0,1,.79-5,11.62,11.62,0,0,1,2.3-4A10.71,10.71,0,0,1,126.43,52a13.42,13.42,0,0,1,10,0,10.65,10.65,0,0,1,3.7,2.68,11.62,11.62,0,0,1,2.3,4,15.77,15.77,0,0,1,.79,5v.49a15.74,15.74,0,0,1-.79,5.06,11.71,11.71,0,0,1-2.29,4A10.35,10.35,0,0,1,136.47,76a12.34,12.34,0,0,1-5,1,12.53,12.53,0,0,1-5-1,10.51,10.51,0,0,1-3.71-2.66,11.57,11.57,0,0,1-2.3-4,15.47,15.47,0,0,1-.79-5.06Zm6.42.49a13.19,13.19,0,0,0,.31,2.94,7.39,7.39,0,0,0,.94,2.4A4.82,4.82,0,0,0,129,71.18a4.88,4.88,0,0,0,2.49.6,4.54,4.54,0,0,0,4.07-2.23,7.39,7.39,0,0,0,.94-2.4,13.82,13.82,0,0,0,.3-2.94v-.49a13.41,13.41,0,0,0-.3-2.89,7.57,7.57,0,0,0-.94-2.4,4.53,4.53,0,0,0-4.12-2.24,4.76,4.76,0,0,0-2.45.6,4.91,4.91,0,0,0-1.66,1.64,7.57,7.57,0,0,0-.94,2.4,12.8,12.8,0,0,0-.31,2.89Z" transform="translate(0.01 -0.14)" style="fill:#fff"/><path d="M154.74,51.46l.39,3.46a9.49,9.49,0,0,1,3.26-2.9,8.88,8.88,0,0,1,4.25-1,10.33,10.33,0,0,1,3.46.56,6.83,6.83,0,0,1,2.72,1.77,8.3,8.3,0,0,1,1.77,3.11,14.58,14.58,0,0,1,.64,4.63V76.45h-6.42V61.16a7.31,7.31,0,0,0-.34-2.44A3.35,3.35,0,0,0,162,56.43a8.44,8.44,0,0,0-2-.22,5.55,5.55,0,0,0-2.8.66,5.17,5.17,0,0,0-1.87,1.82V76.45h-6.44v-25Z" transform="translate(0.01 -0.14)" style="fill:#fff"/><path d="M192.92,76.45a5.56,5.56,0,0,1-.4-1.07,11.35,11.35,0,0,1-.27-1.27,8.62,8.62,0,0,1-2.76,2,9.83,9.83,0,0,1-4.06.82,10.74,10.74,0,0,1-3.52-.56,8.4,8.4,0,0,1-2.76-1.54,7.18,7.18,0,0,1-1.8-2.37,7,7,0,0,1-.65-3,7.12,7.12,0,0,1,3-6.11q2.94-2.16,8.78-2.16H192V59.7a3.64,3.64,0,0,0-1.17-2.85,5,5,0,0,0-3.4-1.05,4.09,4.09,0,0,0-2.86.84,2.93,2.93,0,0,0-.9,2.25h-6.42a6.73,6.73,0,0,1,.7-3A7.26,7.26,0,0,1,180,53.35a10.3,10.3,0,0,1,3.3-1.72,14.52,14.52,0,0,1,4.47-.64,15.3,15.3,0,0,1,4.21.56,10.09,10.09,0,0,1,3.39,1.64,7.5,7.5,0,0,1,2.24,2.74,8.69,8.69,0,0,1,.81,3.82V70.46a18.08,18.08,0,0,0,.25,3.33,8.57,8.57,0,0,0,.74,2.26v.4Zm-6.13-4.51a6.55,6.55,0,0,0,1.81-.23,6.71,6.71,0,0,0,1.5-.6,5.33,5.33,0,0,0,1.15-.84,4.26,4.26,0,0,0,.76-1V65h-3.28a10,10,0,0,0-2.56.29,4.88,4.88,0,0,0-1.73.81,3.13,3.13,0,0,0-1,1.25,3.76,3.76,0,0,0-.33,1.58,2.83,2.83,0,0,0,.92,2.15A3.87,3.87,0,0,0,186.79,71.94Z" transform="translate(0.01 -0.14)" style="fill:#fff"/><path d="M245,67.05l6.36-24.23h7.16L248.3,76.45h-6.61L231.53,42.82h7.16Z" transform="translate(0.01 -0.14)" style="fill:#fff"/><path d="M278.76,69.43H268.67l-2,7h-6.83l11-33.63h5.88l10.81,33.63h-6.83Zm-8.5-5.52h7L273.8,51.53Z" transform="translate(0.01 -0.14)" style="fill:#fff"/><path d="M315.33,48.11H305V76.45h-6.52V48.11H288.21V42.82h27.12Z" transform="translate(0.01 -0.14)" style="fill:#fff"/><rect x="17.02" y="24.81" width="315.37" height="70.24" style="fill:none;stroke:#fff;stroke-miterlimit:10;stroke-width:1.65019379228794px"/><path d="M263.44,108.55a3.37,3.37,0,0,1,.13-1,2.34,2.34,0,0,1,.37-.76,1.72,1.72,0,0,1,.59-.49,1.66,1.66,0,0,1,.78-.18,1.59,1.59,0,0,1,.68.14,1.37,1.37,0,0,1,.52.38v-2.41h1.05v6.69h-.95l-.05-.48a1.64,1.64,0,0,1-.53.42,1.67,1.67,0,0,1-.73.15,1.65,1.65,0,0,1-.77-.18,1.74,1.74,0,0,1-.58-.5,2.46,2.46,0,0,1-.38-.76,3.21,3.21,0,0,1-.13-1Zm1,.09a2.91,2.91,0,0,0,.06.6,1.79,1.79,0,0,0,.19.49,1,1,0,0,0,.34.32,1,1,0,0,0,.5.12,1,1,0,0,0,.58-.15,1.06,1.06,0,0,0,.36-.42v-2a1.1,1.1,0,0,0-.36-.41,1,1,0,0,0-.57-.15.93.93,0,0,0-.84.45,1.59,1.59,0,0,0-.2.5,2.91,2.91,0,0,0-.06.6Z" transform="translate(0.01 -0.14)" style="fill:#fff"/><path d="M271.12,111a2.47,2.47,0,0,1-.95-.18,2.06,2.06,0,0,1-.74-.48,2.09,2.09,0,0,1-.47-.72,2.19,2.19,0,0,1-.17-.9v-.17a2.67,2.67,0,0,1,.18-1,2.4,2.4,0,0,1,.48-.77,2.2,2.2,0,0,1,.71-.49,2.17,2.17,0,0,1,.84-.17,2.34,2.34,0,0,1,.91.17,1.78,1.78,0,0,1,.65.49,2,2,0,0,1,.4.74,3,3,0,0,1,.14.93v.44h-3.27a1.49,1.49,0,0,0,.14.51,1.3,1.3,0,0,0,.28.41,1.62,1.62,0,0,0,.41.27,1.5,1.5,0,0,0,.52.1,1.74,1.74,0,0,0,.73-.16,1.49,1.49,0,0,0,.55-.43l.56.53a1.71,1.71,0,0,1-.29.33,2.19,2.19,0,0,1-.42.28,2.77,2.77,0,0,1-.53.2A2.71,2.71,0,0,1,271.12,111Zm-.12-4a1.11,1.11,0,0,0-.41.08,1,1,0,0,0-.33.23,1.27,1.27,0,0,0-.25.37,1.66,1.66,0,0,0-.15.49h2.21v-.08a1.86,1.86,0,0,0-.08-.41,1.05,1.05,0,0,0-.2-.34,1,1,0,0,0-.33-.25A1.11,1.11,0,0,0,271,107Z" transform="translate(0.01 -0.14)" style="fill:#fff"/><path d="M276.21,109.63l.07.34.08-.34,1.14-3.4h1.08l-1.85,4.71h-.89L274,106.23h1.08Z" transform="translate(0.01 -0.14)" style="fill:#fff"/><path d="M281.83,111a2.49,2.49,0,0,1-1-.18,2,2,0,0,1-.73-.48,2,2,0,0,1-.48-.72,2.19,2.19,0,0,1-.17-.9v-.17a2.67,2.67,0,0,1,.18-1,2.4,2.4,0,0,1,.48-.77,2.14,2.14,0,0,1,1.55-.66,2.31,2.31,0,0,1,.91.17,1.9,1.9,0,0,1,.66.49,2.18,2.18,0,0,1,.39.74,3,3,0,0,1,.14.93v.44h-3.27a1.75,1.75,0,0,0,.14.51,1.49,1.49,0,0,0,.28.41,1.51,1.51,0,0,0,.42.27,1.42,1.42,0,0,0,.52.1,1.81,1.81,0,0,0,.73-.16,1.54,1.54,0,0,0,.54-.43l.56.53a1.71,1.71,0,0,1-.29.33,2.19,2.19,0,0,1-.42.28,2.34,2.34,0,0,1-.53.2A2.69,2.69,0,0,1,281.83,111Zm-.13-4a1.06,1.06,0,0,0-.4.08,1,1,0,0,0-.34.23,1.27,1.27,0,0,0-.25.37,1.66,1.66,0,0,0-.15.49h2.21v-.08a1.42,1.42,0,0,0-.08-.41.9.9,0,0,0-.2-.34.85.85,0,0,0-.33-.25A1.08,1.08,0,0,0,281.7,107Z" transform="translate(0.01 -0.14)" style="fill:#fff"/><path d="M285.17,104.25h2.55v5.83h1.44v.86h-4v-.86h1.5v-5h-1.5Z" transform="translate(0.01 -0.14)" style="fill:#fff"/><path d="M290.14,108.54a3,3,0,0,1,.15-1,2.35,2.35,0,0,1,.43-.76,2,2,0,0,1,.69-.5,2.32,2.32,0,0,1,1.84,0,2,2,0,0,1,.69.5,2.18,2.18,0,0,1,.43.76,3,3,0,0,1,.15,1v.09a3,3,0,0,1-.15,1,2.27,2.27,0,0,1-.43.76,2,2,0,0,1-.68.5,2.47,2.47,0,0,1-1.85,0,2,2,0,0,1-.69-.5,2.46,2.46,0,0,1-.43-.76,3,3,0,0,1-.15-1Zm1,.09a2.92,2.92,0,0,0,.07.61,1.88,1.88,0,0,0,.21.5,1.07,1.07,0,0,0,.36.34,1.05,1.05,0,0,0,.52.12,1,1,0,0,0,.5-.12,1.07,1.07,0,0,0,.36-.34,1.4,1.4,0,0,0,.21-.5,2.37,2.37,0,0,0,.07-.61v-.09a2.35,2.35,0,0,0-.07-.6,1.35,1.35,0,0,0-.21-.49,1,1,0,0,0-.36-.34.92.92,0,0,0-.51-.13,1,1,0,0,0-.52.13,1,1,0,0,0-.35.34,1.55,1.55,0,0,0-.21.49,2.9,2.9,0,0,0-.07.6Z" transform="translate(0.01 -0.14)" style="fill:#fff"/><path d="M299.81,108.63a3.66,3.66,0,0,1-.12,1,2.32,2.32,0,0,1-.36.76,1.74,1.74,0,0,1-.58.5,1.66,1.66,0,0,1-.78.18,1.91,1.91,0,0,1-.71-.13,1.56,1.56,0,0,1-.53-.38v2.23h-1v-6.52h1l0,.47a1.55,1.55,0,0,1,.54-.41,1.66,1.66,0,0,1,.72-.15,1.71,1.71,0,0,1,.8.18,1.6,1.6,0,0,1,.58.49,2.18,2.18,0,0,1,.36.75,3.76,3.76,0,0,1,.12,1Zm-1-.09a2.35,2.35,0,0,0-.07-.6,1.53,1.53,0,0,0-.2-.49,1,1,0,0,0-.34-.33,1.17,1.17,0,0,0-1.07,0,1.07,1.07,0,0,0-.36.4v2.11a1.12,1.12,0,0,0,.36.39.93.93,0,0,0,.58.16,1,1,0,0,0,.84-.47,1.74,1.74,0,0,0,.2-.5,2.91,2.91,0,0,0,.06-.6Z" transform="translate(0.01 -0.14)" style="fill:#fff"/><path d="M305.12,110.94H300.8v-.83l2.05-2.2c.16-.17.29-.33.4-.47l.27-.39a1.55,1.55,0,0,0,.15-.33,1,1,0,0,0,0-.3,1.12,1.12,0,0,0-.06-.38.73.73,0,0,0-.17-.28.81.81,0,0,0-.26-.18,1,1,0,0,0-.35-.06,1,1,0,0,0-.74.28,1.13,1.13,0,0,0-.25.78h-1.21a2,2,0,0,1,.61-1.46,2.24,2.24,0,0,1,.71-.44,2.64,2.64,0,0,1,1.78,0,1.62,1.62,0,0,1,.62.38,1.5,1.5,0,0,1,.38.58,2.06,2.06,0,0,1,.13.76,1.72,1.72,0,0,1-.1.6,2.22,2.22,0,0,1-.27.56,4.37,4.37,0,0,1-.44.57c-.17.19-.35.4-.56.61L302.34,110h2.78Z" transform="translate(0.01 -0.14)" style="fill:#fff"/><path d="M306.21,108.55a3.37,3.37,0,0,1,.13-1,2.17,2.17,0,0,1,.38-.76,1.59,1.59,0,0,1,.6-.49,1.87,1.87,0,0,1,1.51,0,1.48,1.48,0,0,1,.5.4l.05-.45h1.1v4.56a2.08,2.08,0,0,1-.16.85,1.71,1.71,0,0,1-.46.63,2,2,0,0,1-.71.39,2.83,2.83,0,0,1-.9.14,2.49,2.49,0,0,1-.46,0,2.85,2.85,0,0,1-.48-.13,2.25,2.25,0,0,1-.46-.24,1.42,1.42,0,0,1-.36-.33l.54-.74a1.77,1.77,0,0,0,.52.4,1.53,1.53,0,0,0,.64.14,1.06,1.06,0,0,0,.79-.28,1,1,0,0,0,.29-.77v-.27a1.63,1.63,0,0,1-.5.37,1.79,1.79,0,0,1-1.45-.05,1.71,1.71,0,0,1-.6-.5,2.26,2.26,0,0,1-.38-.76,3.21,3.21,0,0,1-.13-1Zm1.21.09a2.38,2.38,0,0,0,.06.55,1.51,1.51,0,0,0,.18.45.86.86,0,0,0,.31.29.78.78,0,0,0,.44.11,1.07,1.07,0,0,0,.53-.12,1,1,0,0,0,.33-.34v-2a1,1,0,0,0-.33-.34,1,1,0,0,0-.52-.12.78.78,0,0,0-.44.11.81.81,0,0,0-.31.3,1.3,1.3,0,0,0-.19.45,2.53,2.53,0,0,0-.06.56Z" transform="translate(0.01 -0.14)" style="fill:#fff"/><path d="M315.06,106.14a2.78,2.78,0,0,1,.51,0,2.49,2.49,0,0,1,.38.08l-.18,1.21a4.21,4.21,0,0,0-.49-.09l-.48,0a1.53,1.53,0,0,0-.82.2,1.28,1.28,0,0,0-.46.56v2.83h-1.21v-4.71h1.13l.06.77a2.07,2.07,0,0,1,.69-.63A1.74,1.74,0,0,1,315.06,106.14Z" transform="translate(0.01 -0.14)" style="fill:#fff"/><path d="M316.86,108.54a2.91,2.91,0,0,1,.15-1,2.05,2.05,0,0,1,.44-.76,2,2,0,0,1,.69-.5,2.45,2.45,0,0,1,1.89,0,2.08,2.08,0,0,1,.7.5,2.18,2.18,0,0,1,.43.76,2.91,2.91,0,0,1,.15,1v.09a2.93,2.93,0,0,1-.15,1,2.27,2.27,0,0,1-.43.76,2,2,0,0,1-.7.5,2.54,2.54,0,0,1-1.88,0,1.9,1.9,0,0,1-.7-.5,2.14,2.14,0,0,1-.44-.76,2.93,2.93,0,0,1-.15-1Zm1.21.09a2.47,2.47,0,0,0,.06.56,1.51,1.51,0,0,0,.18.45,1,1,0,0,0,.31.31,1,1,0,0,0,.47.11,1,1,0,0,0,.46-.11.92.92,0,0,0,.31-.31,1.51,1.51,0,0,0,.18-.45,2.48,2.48,0,0,0,0-.56v-.09a2.36,2.36,0,0,0,0-.54,1.58,1.58,0,0,0-.18-.46.81.81,0,0,0-.31-.3.86.86,0,0,0-.47-.12.85.85,0,0,0-.46.12.81.81,0,0,0-.31.3,1.58,1.58,0,0,0-.18.46,2.35,2.35,0,0,0-.06.54Z" transform="translate(0.01 -0.14)" style="fill:#fff"/><path d="M325.39,109.46l.41-3.23h1.11l-.84,4.71H325l-.62-3-.6,3h-1.06l-.85-4.71H323l.41,3.25.59-3.25h.81Z" transform="translate(0.01 -0.14)" style="fill:#fff"/><path d="M257.22,108.28l4.18-2V107l-3.32,1.54v0l3.32,1.55v.79l-4.18-2Z" transform="translate(0.01 -0.14)" style="fill:#fff"/><path d="M333.13,108.93l-4.18,2v-.79l3.37-1.55v0L329,107v-.78l4.18,2Z" transform="translate(0.01 -0.14)" style="fill:#fff"/></svg>